<svg width="46" height="24" viewBox="0 0 46 24" fill="none" xmlns="http://www.w3.org/2000/svg">
<path d="M16.9411 8.30329V6.72049H20.1067V17.8153H18.3565V8.30329H16.9411ZM23.4185 17.9218C23.104 17.9218 22.8402 17.8153 22.6271 17.6022C22.4141 17.3892 22.3075 17.1254 22.3075 16.8108C22.3075 16.4963 22.4141 16.2325 22.6271 16.0194C22.8402 15.8064 23.104 15.6998 23.4185 15.6998C23.7229 15.6998 23.9816 15.8064 24.1947 16.0194C24.4078 16.2325 24.5143 16.4963 24.5143 16.8108C24.5143 17.1254 24.4078 17.3892 24.1947 17.6022C23.9816 17.8153 23.7229 17.9218 23.4185 17.9218ZM25.9481 15.502V14.1931L31.0618 6.85746H33.1621V13.9953H34.5774V15.502H33.1621V17.8153H31.4575V15.502H25.9481ZM31.5336 8.62289L27.9419 13.9953H31.5336V8.62289ZM36.0151 12.1233C36.0151 10.368 36.3093 8.9983 36.8978 8.01412C37.4964 7.0198 38.5212 6.52264 39.9721 6.52264C41.423 6.52264 42.4427 7.0198 43.0311 8.01412C43.6298 8.9983 43.9291 10.368 43.9291 12.1233C43.9291 13.8989 43.6298 15.2889 43.0311 16.2934C42.4427 17.2877 41.423 17.7849 39.9721 17.7849C38.5212 17.7849 37.4964 17.2877 36.8978 16.2934C36.3093 15.2889 36.0151 13.8989 36.0151 12.1233ZM42.2245 12.1233C42.2245 11.3015 42.1687 10.6065 42.0571 10.0383C41.9556 9.4701 41.7426 9.00845 41.4179 8.65333C41.0932 8.28807 40.6113 8.10544 39.9721 8.10544C39.3329 8.10544 38.8509 8.28807 38.5262 8.65333C38.2016 9.00845 37.9834 9.4701 37.8718 10.0383C37.7704 10.6065 37.7196 11.3015 37.7196 12.1233C37.7196 12.9756 37.7704 13.6909 37.8718 14.2692C37.9733 14.8476 38.1863 15.3143 38.511 15.6694C38.8458 16.0245 39.3329 16.2021 39.9721 16.2021C40.6113 16.2021 41.0932 16.0245 41.4179 15.6694C41.7527 15.3143 41.9709 14.8476 42.0723 14.2692C42.1738 13.6909 42.2245 12.9756 42.2245 12.1233Z" fill="black"/>
<g clip-path="url(#clip0_1_4562)">
<path d="M10.2355 10.9425L5.35144 13.8434L0.464111 10.9425L5.35144 2.78979L10.2355 10.9425ZM5.35144 14.775L0.464111 11.874L5.35144 18.7951L10.2388 11.874L5.35144 14.775Z" fill="black"/>
</g>
<defs>
<clipPath id="clip0_1_4562">
<rect width="10.2891" height="16.0053" fill="white" transform="translate(0.206665 2.78967)"/>
</clipPath>
</defs>
</svg>
