<svg width="45" height="24" viewBox="0 0 45 24" fill="none" xmlns="http://www.w3.org/2000/svg">
<path d="M16.0604 7.54316V5.96036H19.226V17.0552H17.4757V7.54316H16.0604ZM22.5378 17.1617C22.2233 17.1617 21.9595 17.0552 21.7464 16.8421C21.5333 16.629 21.4268 16.3652 21.4268 16.0507C21.4268 15.7362 21.5333 15.4724 21.7464 15.2593C21.9595 15.0462 22.2233 14.9397 22.5378 14.9397C22.8422 14.9397 23.1009 15.0462 23.314 15.2593C23.5271 15.4724 23.6336 15.7362 23.6336 16.0507C23.6336 16.3652 23.5271 16.629 23.314 16.8421C23.1009 17.0552 22.8422 17.1617 22.5378 17.1617ZM32.4335 7.45184H27.3351V10.4805C27.5481 10.1964 27.8627 9.95794 28.2787 9.76516C28.7048 9.57239 29.1563 9.476 29.6332 9.476C30.4854 9.476 31.1754 9.65863 31.703 10.0239C32.2407 10.3892 32.6212 10.8508 32.8444 11.4088C33.0778 11.9669 33.1945 12.5554 33.1945 13.1743C33.1945 13.9251 33.0474 14.5947 32.7531 15.1832C32.469 15.7615 32.0378 16.2181 31.4595 16.5529C30.8913 16.8878 30.1912 17.0552 29.3592 17.0552C28.2533 17.0552 27.3655 16.7812 26.6959 16.2333C26.0262 15.6854 25.6254 14.96 25.4935 14.057H27.1829C27.2945 14.5339 27.5431 14.9143 27.9286 15.1984C28.3142 15.4724 28.7961 15.6093 29.3744 15.6093C30.0948 15.6093 30.6326 15.3912 30.9877 14.9549C31.3529 14.5186 31.5356 13.9403 31.5356 13.2199C31.5356 12.4894 31.3529 11.9314 30.9877 11.5458C30.6224 11.1501 30.0847 10.9523 29.3744 10.9523C28.8773 10.9523 28.4562 11.0791 28.1112 11.3327C27.7764 11.5763 27.5329 11.9111 27.3807 12.3372H25.737V5.92992H32.4335V7.45184ZM42.1536 7.45184H37.0552V10.4805C37.2682 10.1964 37.5828 9.95794 37.9988 9.76516C38.4249 9.57239 38.8764 9.476 39.3533 9.476C40.2055 9.476 40.8955 9.65863 41.4231 10.0239C41.9608 10.3892 42.3413 10.8508 42.5645 11.4088C42.7979 11.9669 42.9146 12.5554 42.9146 13.1743C42.9146 13.9251 42.7674 14.5947 42.4732 15.1832C42.1891 15.7615 41.7579 16.2181 41.1796 16.5529C40.6114 16.8878 39.9113 17.0552 39.0793 17.0552C37.9734 17.0552 37.0856 16.7812 36.416 16.2333C35.7463 15.6854 35.3455 14.96 35.2136 14.057H36.903C37.0146 14.5339 37.2632 14.9143 37.6487 15.1984C38.0343 15.4724 38.5162 15.6093 39.0945 15.6093C39.8149 15.6093 40.3527 15.3912 40.7078 14.9549C41.073 14.5186 41.2557 13.9403 41.2557 13.2199C41.2557 12.4894 41.073 11.9314 40.7078 11.5458C40.3425 11.1501 39.8048 10.9523 39.0945 10.9523C38.5974 10.9523 38.1763 11.0791 37.8313 11.3327C37.4965 11.5763 37.253 11.9111 37.1008 12.3372H35.4571V5.92992H42.1536V7.45184Z" fill="black"/>
<g clip-path="url(#clip0_1_4558)">
<path d="M10.2355 10.1821L5.35144 13.0831L0.464111 10.1821L5.35144 2.02942L10.2355 10.1821ZM5.35144 14.0146L0.464111 11.1137L5.35144 18.0347L10.2388 11.1137L5.35144 14.0146Z" fill="black"/>
</g>
<defs>
<clipPath id="clip0_1_4558">
<rect width="10.2891" height="16.0053" fill="white" transform="translate(0.206665 2.02942)"/>
</clipPath>
</defs>
</svg>
