<svg width="40" height="19" viewBox="0 0 40 19" fill="none" xmlns="http://www.w3.org/2000/svg">
<path d="M8.37755 2.48792L4.36948 9.22148L8.37755 11.6263L12.3856 9.22148L8.37755 2.48792ZM4.36948 10.0231L8.37755 15.6344L12.3856 10.0231L8.37755 12.4279L4.36948 10.0231Z" fill="#141416"/>
<path d="M18.3215 5.57929V4.33433H20.8114V13.061H19.4348V5.57929H18.3215ZM23.4164 13.1448C23.169 13.1448 22.9615 13.061 22.7939 12.8934C22.6263 12.7259 22.5425 12.5184 22.5425 12.271C22.5425 12.0236 22.6263 11.8161 22.7939 11.6485C22.9615 11.4809 23.169 11.3971 23.4164 11.3971C23.6558 11.3971 23.8593 11.4809 24.0269 11.6485C24.1945 11.8161 24.2783 12.0236 24.2783 12.271C24.2783 12.5184 24.1945 12.7259 24.0269 12.8934C23.8593 13.061 23.6558 13.1448 23.4164 13.1448ZM31.1041 5.38776L27.7763 13.061H26.3996L29.7634 5.53141H25.3342V4.37024H31.1041V5.38776ZM37.8984 5.50747H33.8882V7.88965C34.0558 7.6662 34.3032 7.47866 34.6304 7.32703C34.9656 7.1754 35.3207 7.09958 35.6958 7.09958C36.3661 7.09958 36.9088 7.24323 37.3238 7.53053C37.7468 7.81783 38.046 8.18094 38.2216 8.61987C38.4052 9.0588 38.4969 9.52167 38.4969 10.0085C38.4969 10.599 38.3812 11.1258 38.1498 11.5886C37.9263 12.0435 37.5872 12.4026 37.1323 12.666C36.6854 12.9294 36.1347 13.061 35.4803 13.061C34.6104 13.061 33.9121 12.8456 33.3854 12.4146C32.8587 11.9837 32.5435 11.4131 32.4397 10.7028H33.7685C33.8563 11.0779 34.0518 11.3771 34.3551 11.6006C34.6583 11.8161 35.0374 11.9238 35.4923 11.9238C36.0589 11.9238 36.4819 11.7522 36.7612 11.4091C37.0485 11.0659 37.1921 10.611 37.1921 10.0444C37.1921 9.4698 37.0485 9.03087 36.7612 8.72761C36.4739 8.41637 36.0509 8.26075 35.4923 8.26075C35.1012 8.26075 34.77 8.36051 34.4987 8.56002C34.2353 8.75155 34.0438 9.01491 33.9241 9.35009H32.6313V4.31039H37.8984V5.50747Z" fill="#141416"/>
</svg>
