<svg width="93" height="50" viewBox="0 0 93 50" fill="none" xmlns="http://www.w3.org/2000/svg">
<path d="M33.5797 17.0936V12.838H41.53V36.887H36.7796V17.0936H33.5797ZM48.6657 37.1179C47.83 37.1179 47.1372 36.865 46.5874 36.3591C46.0595 35.8313 45.7956 35.1825 45.7956 34.4128C45.7956 33.6431 46.0595 33.0053 46.5874 32.4994C47.1372 31.9716 47.83 31.7077 48.6657 31.7077C49.4794 31.7077 50.1502 31.9716 50.678 32.4994C51.2058 33.0053 51.4697 33.6431 51.4697 34.4128C51.4697 35.1825 51.2058 35.8313 50.678 36.3591C50.1502 36.865 49.4794 37.1179 48.6657 37.1179ZM69.9688 16.3349L61.1937 36.887H56.5093L65.3503 16.8627H54.0681V12.904H69.9688V16.3349ZM88.8995 16.8297H78.2111V22.4708C78.6729 21.899 79.3327 21.4372 80.1904 21.0853C81.0482 20.7114 81.9608 20.5245 82.9285 20.5245C84.6879 20.5245 86.1284 20.9093 87.2501 21.6791C88.3717 22.4488 89.1854 23.4385 89.6912 24.6481C90.1971 25.8357 90.45 27.1112 90.45 28.4748C90.45 31.0039 89.7242 33.0383 88.2727 34.5777C86.8432 36.1172 84.7979 36.887 82.1368 36.887C79.6296 36.887 77.6283 36.2602 76.1328 35.0066C74.6373 33.753 73.7906 32.1146 73.5927 30.0912H78.0791C78.2771 30.971 78.7169 31.6747 79.3987 32.2025C80.1025 32.7304 80.9932 32.9943 82.0708 32.9943C83.3684 32.9943 84.347 32.5874 85.0068 31.7737C85.6666 30.96 85.9965 29.8823 85.9965 28.5408C85.9965 27.1772 85.6556 26.1436 84.9738 25.4398C84.3141 24.7141 83.3354 24.3512 82.0378 24.3512C81.1141 24.3512 80.3444 24.5821 79.7286 25.0439C79.1128 25.5058 78.6729 26.1216 78.409 26.8913H73.9885V12.7721H88.8995V16.8297Z" fill="#292B39"/>
<g clip-path="url(#clip0_1_4150)">
<path d="M22.4686 25.0176L11.8601 31.4695L1.24463 25.0176L11.8601 6.88574L22.4686 25.0176ZM11.8601 33.5413L1.24463 27.0894L11.8601 42.4821L22.4756 27.0894L11.8601 33.5413Z" fill="#292B39"/>
</g>
<defs>
<clipPath id="clip0_1_4150">
<rect width="22.3484" height="35.5963" fill="white" transform="translate(0.685059 6.88574)"/>
</clipPath>
</defs>
</svg>
