<svg width="27" height="28" viewBox="0 0 27 28" fill="none" xmlns="http://www.w3.org/2000/svg">
<path d="M19.3183 2.96094H7.8586C6.14188 2.96094 4.7373 4.35437 4.7373 6.08224V22.1235C4.7373 23.8514 6.14188 25.256 7.8586 25.256H19.3183C21.0462 25.256 22.4396 23.8514 22.4396 22.1235V6.08224C22.4396 4.35437 21.0462 2.96094 19.3183 2.96094ZM9.00683 19.0468H18.1701C18.6383 19.0468 19.0061 19.4259 19.0061 19.8829C19.0061 20.34 18.6383 20.719 18.1701 20.719H9.00683C8.54978 20.719 8.17077 20.34 8.17077 19.8829C8.17077 19.4259 8.54978 19.0468 9.00683 19.0468ZM8.17077 14.1531C8.17077 13.696 8.54978 13.317 9.00683 13.317H18.1701C18.6383 13.317 19.0061 13.696 19.0061 14.1531C19.0061 14.6213 18.6383 14.9891 18.1701 14.9891H9.00683C8.54978 14.9891 8.17077 14.6213 8.17077 14.1531ZM18.1701 9.25929H9.00683C8.54978 9.25929 8.17077 8.89142 8.17077 8.42323C8.17077 7.96618 8.54978 7.58716 9.00683 7.58716H18.1701C18.6383 7.58716 19.0061 7.96618 19.0061 8.42323C19.0061 8.89142 18.6383 9.25929 18.1701 9.25929Z" fill="black"/>
</svg>
