<svg width="26" height="25" viewBox="0 0 26 25" fill="none" xmlns="http://www.w3.org/2000/svg">
<path fill-rule="evenodd" clip-rule="evenodd" d="M21.3127 12.4568C21.3127 13.2645 22.0061 13.9217 22.8583 13.9217C23.2881 13.9217 23.6368 14.2523 23.6368 14.6596V17.3168C23.6368 19.5638 21.7082 21.3917 19.3374 21.3917H7.17724C4.80645 21.3917 2.8768 19.5638 2.8768 17.3168V14.6596C2.8768 14.2523 3.22557 13.9217 3.6553 13.9217C4.50854 13.9217 5.20192 13.2645 5.20192 12.4568C5.20192 11.6698 4.53657 11.0776 3.6553 11.0776C3.44874 11.0776 3.25152 10.9998 3.10516 10.8611C2.9588 10.7224 2.8768 10.5345 2.8768 10.3397L2.87888 7.5959C2.87888 5.3489 4.80748 3.52002 7.17828 3.52002H19.3354C21.7062 3.52002 23.6358 5.3489 23.6358 7.5959L23.6368 10.2541C23.6368 10.4489 23.5548 10.6378 23.4095 10.7755C23.2632 10.9142 23.0659 10.992 22.8583 10.992C22.0061 10.992 21.3127 11.6491 21.3127 12.4568ZM15.5944 13.0995L16.8182 11.9701C17.031 11.7753 17.1047 11.488 17.0123 11.2224C16.921 10.9568 16.6822 10.7679 16.3937 10.7295L14.7028 10.4954L13.9461 9.04327C13.8163 8.79339 13.5527 8.63795 13.2589 8.63696H13.2568C12.9641 8.63696 12.7005 8.79241 12.5686 9.04229L11.8119 10.4954L10.1241 10.7285C9.83246 10.7679 9.59372 10.9568 9.50134 11.2224C9.40999 11.488 9.48369 11.7753 9.69544 11.9701L10.9192 13.0995L10.6307 14.6962C10.5809 14.9716 10.6982 15.2451 10.9369 15.4094C11.0718 15.5009 11.2286 15.5481 11.3874 15.5481C11.5088 15.5481 11.6313 15.5196 11.7434 15.4635L13.2568 14.71L14.7671 15.4616C15.0287 15.5944 15.3391 15.5737 15.5768 15.4084C15.8165 15.2451 15.9338 14.9716 15.884 14.6962L15.5944 13.0995Z" fill="#130F26"/>
</svg>
