<svg width="28" height="28" viewBox="0 0 28 28" fill="none" xmlns="http://www.w3.org/2000/svg">
<path d="M21.1018 3.00562H7.34566C4.99353 3.00562 3.07617 4.92299 3.07617 7.27512V21.0312C3.07617 23.3833 4.99353 25.3007 7.34566 25.3007H21.1018C23.1306 25.3007 24.825 23.8738 25.2598 21.9787C25.3267 21.8561 25.3713 21.7223 25.3713 21.5774V7.27512C25.3713 4.92299 23.4539 3.00562 21.1018 3.00562ZM21.9378 15.3014C21.9378 15.7584 21.5588 16.1374 21.1018 16.1374C20.6336 16.1374 20.2657 15.7584 20.2657 15.3014V13.005C20.2657 12.5479 20.6336 12.1689 21.1018 12.1689C21.5588 12.1689 21.9378 12.5479 21.9378 13.005V15.3014ZM6.5096 15.3014V13.005C6.5096 12.5479 6.88862 12.1689 7.34566 12.1689C7.81386 12.1689 8.18173 12.5479 8.18173 13.005V15.3014C8.18173 15.7584 7.81386 16.1374 7.34566 16.1374C6.88862 16.1374 6.5096 15.7584 6.5096 15.3014ZM18.4932 10.7197V17.5866C18.4932 18.0548 18.1253 18.4227 17.6571 18.4227C17.2001 18.4227 16.8211 18.0548 16.8211 17.5866V10.7197C16.8211 10.2515 17.2001 9.88365 17.6571 9.88365C18.1253 9.88365 18.4932 10.2515 18.4932 10.7197ZM15.0598 8.42332V19.883C15.0598 20.34 14.6808 20.7191 14.2237 20.7191C13.7667 20.7191 13.3876 20.34 13.3876 19.883V8.42332C13.3876 7.96627 13.7667 7.58725 14.2237 7.58725C14.6808 7.58725 15.0598 7.96627 15.0598 8.42332ZM11.6264 10.7197V17.5866C11.6264 18.0548 11.2473 18.4227 10.7903 18.4227C10.3221 18.4227 9.95422 18.0548 9.95422 17.5866V10.7197C9.95422 10.2515 10.3221 9.88365 10.7903 9.88365C11.2473 9.88365 11.6264 10.2515 11.6264 10.7197Z" fill="black"/>
</svg>
