<svg width="120" height="193" viewBox="0 0 120 193" fill="none" xmlns="http://www.w3.org/2000/svg">
<g id="Dot Ornament" opacity="0.5">
<rect id="Rectangle 3" width="2.83607" height="2.84073" fill="black"/>
<rect id="Rectangle 3 Copy" x="18.9062" width="2.83607" height="2.84073" fill="black"/>
<rect id="Rectangle 3 Copy 2" x="37.8145" width="2.83607" height="2.84073" fill="black"/>
<rect id="Rectangle 3 Copy 3" x="56.7217" width="2.83607" height="2.84073" fill="black"/>
<rect id="Rectangle 3 Copy 4" x="75.6279" width="2.83607" height="2.84073" fill="black"/>
<rect id="Rectangle 3 Copy 5" x="94.5361" width="2.83607" height="2.84073" fill="black"/>
<rect id="Rectangle 3 Copy 6" x="113.443" width="2.83607" height="2.84073" fill="black"/>
<rect id="Rectangle 3 Copy 19" y="18.9377" width="2.83607" height="2.84073" fill="black"/>
<rect id="Rectangle 3 Copy 18" x="18.9062" y="18.9377" width="2.83607" height="2.84073" fill="black"/>
<rect id="Rectangle 3 Copy 17" x="37.8145" y="18.9377" width="2.83607" height="2.84073" fill="black"/>
<rect id="Rectangle 3 Copy 16" x="56.7217" y="18.9377" width="2.83607" height="2.84073" fill="black"/>
<rect id="Rectangle 3 Copy 15" x="75.6279" y="18.9377" width="2.83607" height="2.84073" fill="black"/>
<rect id="Rectangle 3 Copy 14" x="94.5361" y="18.9377" width="2.83607" height="2.84073" fill="black"/>
<rect id="Rectangle 3 Copy 13" x="113.443" y="18.9377" width="2.83607" height="2.84073" fill="black"/>
<rect id="Rectangle 3 Copy 29" y="37.8765" width="2.83607" height="2.84073" fill="black"/>
<rect id="Rectangle 3 Copy 28" x="18.9062" y="37.8765" width="2.83607" height="2.84073" fill="black"/>
<rect id="Rectangle 3 Copy 27" x="37.8145" y="37.8765" width="2.83607" height="2.84073" fill="black"/>
<rect id="Rectangle 3 Copy 26" x="56.7217" y="37.8765" width="2.83607" height="2.84073" fill="black"/>
<rect id="Rectangle 3 Copy 25" x="75.6279" y="37.8765" width="2.83607" height="2.84073" fill="black"/>
<rect id="Rectangle 3 Copy 24" x="94.5361" y="37.8765" width="2.83607" height="2.84073" fill="black"/>
<rect id="Rectangle 3 Copy 23" x="113.443" y="37.8765" width="2.83607" height="2.84073" fill="black"/>
<rect id="Rectangle 3 Copy 39" y="56.8152" width="2.83607" height="2.84073" fill="black"/>
<rect id="Rectangle 3 Copy 38" x="18.9062" y="56.8152" width="2.83607" height="2.84073" fill="black"/>
<rect id="Rectangle 3 Copy 37" x="37.8145" y="56.8152" width="2.83607" height="2.84073" fill="black"/>
<rect id="Rectangle 3 Copy 36" x="56.7217" y="56.8152" width="2.83607" height="2.84073" fill="black"/>
<rect id="Rectangle 3 Copy 35" x="75.6279" y="56.8152" width="2.83607" height="2.84073" fill="black"/>
<rect id="Rectangle 3 Copy 34" x="94.5361" y="56.8152" width="2.83607" height="2.84073" fill="black"/>
<rect id="Rectangle 3 Copy 33" x="113.443" y="56.8152" width="2.83607" height="2.84073" fill="black"/>
<rect id="Rectangle 3 Copy 49" y="75.7527" width="2.83607" height="2.84073" fill="black"/>
<rect id="Rectangle 3 Copy 48" x="18.9062" y="75.7527" width="2.83607" height="2.84073" fill="black"/>
<rect id="Rectangle 3 Copy 47" x="37.8145" y="75.7527" width="2.83607" height="2.84073" fill="black"/>
<rect id="Rectangle 3 Copy 46" x="56.7217" y="75.7527" width="2.83607" height="2.84073" fill="black"/>
<rect id="Rectangle 3 Copy 45" x="75.6279" y="75.7527" width="2.83607" height="2.84073" fill="black"/>
<rect id="Rectangle 3 Copy 44" x="94.5361" y="75.7527" width="2.83607" height="2.84073" fill="black"/>
<rect id="Rectangle 3 Copy 43" x="113.443" y="75.7527" width="2.83607" height="2.84073" fill="black"/>
<rect id="Rectangle 3 Copy 59" y="94.6914" width="2.83607" height="2.84073" fill="black"/>
<rect id="Rectangle 3 Copy 58" x="18.9062" y="94.6914" width="2.83607" height="2.84073" fill="black"/>
<rect id="Rectangle 3 Copy 57" x="37.8145" y="94.6914" width="2.83607" height="2.84073" fill="black"/>
<rect id="Rectangle 3 Copy 56" x="56.7217" y="94.6914" width="2.83607" height="2.84073" fill="black"/>
<rect id="Rectangle 3 Copy 55" x="75.6279" y="94.6914" width="2.83607" height="2.84073" fill="black"/>
<rect id="Rectangle 3 Copy 54" x="94.5361" y="94.6914" width="2.83607" height="2.84073" fill="black"/>
<rect id="Rectangle 3 Copy 53" x="113.443" y="94.6914" width="2.83607" height="2.84073" fill="black"/>
<rect id="Rectangle 3 Copy 69" y="113.629" width="2.83607" height="2.84073" fill="black"/>
<rect id="Rectangle 3 Copy 68" x="18.9062" y="113.629" width="2.83607" height="2.84073" fill="black"/>
<rect id="Rectangle 3 Copy 67" x="37.8145" y="113.629" width="2.83607" height="2.84073" fill="black"/>
<rect id="Rectangle 3 Copy 66" x="56.7217" y="113.629" width="2.83607" height="2.84073" fill="black"/>
<rect id="Rectangle 3 Copy 65" x="75.6279" y="113.629" width="2.83607" height="2.84073" fill="black"/>
<rect id="Rectangle 3 Copy 64" x="94.5361" y="113.629" width="2.83607" height="2.84073" fill="black"/>
<rect id="Rectangle 3 Copy 63" x="113.443" y="113.629" width="2.83607" height="2.84073" fill="black"/>
<rect id="Rectangle 3 Copy 79" y="132.567" width="2.83607" height="2.84073" fill="black"/>
<rect id="Rectangle 3 Copy 78" x="18.9062" y="132.568" width="2.83607" height="2.84073" fill="black"/>
<rect id="Rectangle 3 Copy 77" x="37.8145" y="132.568" width="2.83607" height="2.84073" fill="black"/>
<rect id="Rectangle 3 Copy 76" x="56.7217" y="132.568" width="2.83607" height="2.84073" fill="black"/>
<rect id="Rectangle 3 Copy 75" x="75.6279" y="132.568" width="2.83607" height="2.84073" fill="black"/>
<rect id="Rectangle 3 Copy 74" x="94.5361" y="132.568" width="2.83607" height="2.84073" fill="black"/>
<rect id="Rectangle 3 Copy 73" x="113.443" y="132.568" width="2.83607" height="2.84073" fill="black"/>
<rect id="Rectangle 3 Copy 89" y="151.506" width="2.83607" height="2.84073" fill="black"/>
<rect id="Rectangle 3 Copy 88" x="18.9062" y="151.506" width="2.83607" height="2.84073" fill="black"/>
<rect id="Rectangle 3 Copy 87" x="37.8145" y="151.506" width="2.83607" height="2.84073" fill="black"/>
<rect id="Rectangle 3 Copy 86" x="56.7217" y="151.506" width="2.83607" height="2.84073" fill="black"/>
<rect id="Rectangle 3 Copy 85" x="75.6279" y="151.506" width="2.83607" height="2.84073" fill="black"/>
<rect id="Rectangle 3 Copy 84" x="94.5361" y="151.506" width="2.83607" height="2.84073" fill="black"/>
<rect id="Rectangle 3 Copy 83" x="113.443" y="151.506" width="2.83607" height="2.84073" fill="black"/>
<rect id="Rectangle 3 Copy 99" y="170.443" width="2.83607" height="2.84073" fill="black"/>
<rect id="Rectangle 3 Copy 98" x="18.9062" y="170.443" width="2.83607" height="2.84073" fill="black"/>
<rect id="Rectangle 3 Copy 97" x="37.8145" y="170.443" width="2.83607" height="2.84073" fill="black"/>
<rect id="Rectangle 3 Copy 96" x="56.7217" y="170.443" width="2.83607" height="2.84073" fill="black"/>
<rect id="Rectangle 3 Copy 95" x="75.6279" y="170.443" width="2.83607" height="2.84073" fill="black"/>
<rect id="Rectangle 3 Copy 94" x="94.5361" y="170.443" width="2.83607" height="2.84073" fill="black"/>
<rect id="Rectangle 3 Copy 93" x="113.443" y="170.443" width="2.83607" height="2.84073" fill="black"/>
<rect id="Rectangle 3 Copy 109" y="189.382" width="2.83607" height="2.84073" fill="black"/>
<rect id="Rectangle 3 Copy 108" x="18.9062" y="189.383" width="2.83607" height="2.84073" fill="black"/>
<rect id="Rectangle 3 Copy 107" x="37.8145" y="189.383" width="2.83607" height="2.84073" fill="black"/>
<rect id="Rectangle 3 Copy 106" x="56.7217" y="189.383" width="2.83607" height="2.84073" fill="black"/>
<rect id="Rectangle 3 Copy 105" x="75.6279" y="189.383" width="2.83607" height="2.84073" fill="black"/>
<rect id="Rectangle 3 Copy 104" x="94.5361" y="189.383" width="2.83607" height="2.84073" fill="black"/>
<rect id="Rectangle 3 Copy 103" x="113.443" y="189.383" width="2.83607" height="2.84073" fill="black"/>
</g>
</svg>
