<svg width="13" height="6" viewBox="0 0 13 6" fill="none" xmlns="http://www.w3.org/2000/svg">
<path d="M12.7794 1.01751C12.7799 1.14397 12.752 1.26891 12.6978 1.38317C12.6436 1.49742 12.5644 1.59808 12.4662 1.67775L7.38745 5.76618C7.23599 5.89068 7.046 5.95874 6.84994 5.95874C6.65388 5.95874 6.4639 5.89068 6.31244 5.76618L1.23364 1.53385C1.06078 1.39017 0.952075 1.18371 0.931438 0.959884C0.910801 0.736056 0.979925 0.513198 1.1236 0.340335C1.26728 0.167473 1.47374 0.0587668 1.69757 0.0381302C1.9214 0.0174937 2.14426 0.0866169 2.31712 0.230295L6.85417 4.014L11.3912 0.357265C11.5155 0.253757 11.6668 0.188005 11.8272 0.167792C11.9877 0.147579 12.1505 0.173749 12.2966 0.243206C12.4426 0.312664 12.5657 0.422501 12.6513 0.559722C12.7369 0.696943 12.7813 0.855804 12.7794 1.01751Z" fill="white"/>
</svg>
