<svg width="235" height="22" viewBox="0 0 235 22" fill="none" xmlns="http://www.w3.org/2000/svg">
<path fill-rule="evenodd" clip-rule="evenodd" d="M159.953 10.6697H156.972V21.3383H152.526V12.4152V10.6697H150.435V6.90439H152.526V4.44644C152.526 2.72065 153.363 0.0012207 156.972 0.0012207H160.266V3.66199H157.913C157.547 3.66199 156.972 3.87118 156.972 4.70793V6.90439H160.319L159.953 10.6697Z" fill="#535353"/>
<path fill-rule="evenodd" clip-rule="evenodd" d="M10.7721 0C12.1916 0.0506994 13.6618 0.0506994 15.0812 0.101392C16.3486 0.152085 17.5146 0.354867 18.6299 1.0139C20.0494 1.87572 20.9112 3.14309 21.2154 4.76533C21.3674 5.72853 21.4181 6.74243 21.4688 7.70564C21.5195 9.83483 21.4688 11.964 21.4688 14.0932C21.4688 15.2085 21.4181 16.3238 21.0633 17.3884C20.3535 19.4669 18.8834 20.7342 16.7542 21.1398C15.791 21.3426 14.7771 21.3426 13.8139 21.3933C11.6846 21.444 9.60615 21.3933 7.47694 21.3933C6.36165 21.3933 5.24635 21.3426 4.18176 20.9877C2.10325 20.278 0.835867 18.8078 0.430303 16.6786C0.227525 15.7154 0.227525 14.7015 0.176829 13.7383C0.126131 11.6091 0.176829 9.47996 0.176829 7.35077C0.176829 6.23549 0.227525 5.1202 0.582391 4.05559C1.29213 1.9771 2.76229 0.709734 4.89148 0.304173C5.8547 0.101399 6.8686 0.101399 7.83181 0.0506994C8.79502 0 9.75823 0 10.7721 0ZM19.5426 10.4939C19.4919 10.4939 19.5426 10.4939 19.5426 10.4939C19.4919 9.6321 19.4919 8.82097 19.4919 7.95916C19.4919 7.14805 19.4412 6.33692 19.3398 5.52581C19.137 3.70078 18.0724 2.4841 16.2981 2.12924C15.3855 1.92646 14.3716 1.92646 13.4591 1.92646C11.6341 1.87577 9.85976 1.87577 8.03473 1.92646C7.12222 1.92646 6.2097 1.97715 5.34788 2.12924C3.82702 2.38271 2.76243 3.24453 2.30617 4.76538C2.15408 5.27233 2.10339 5.77928 2.05269 6.28623C2.002 8.21264 2.002 10.139 2.002 12.0655C2.002 13.2821 2.05269 14.5495 2.15408 15.7662C2.30617 17.5912 3.42146 18.8586 5.2465 19.1627C6.159 19.3148 7.12222 19.3655 8.08543 19.3655C9.85976 19.4162 11.6341 19.3655 13.4591 19.3655C14.2703 19.3655 15.0814 19.3148 15.8925 19.2134C16.6529 19.1627 17.3627 18.9093 17.971 18.4023C18.9849 17.5912 19.3398 16.5266 19.3905 15.3099C19.4919 13.7891 19.4919 12.1668 19.5426 10.4939Z" fill="#535353"/>
<path fill-rule="evenodd" clip-rule="evenodd" d="M16.2471 10.6965C16.2471 13.7381 13.8137 16.1715 10.772 16.1715C7.73025 16.1715 5.29688 13.7381 5.29688 10.6458C5.29688 7.65478 7.78094 5.22144 10.8227 5.22144C13.8137 5.22144 16.2471 7.65478 16.2471 10.6965ZM10.7719 14.245C12.6983 14.245 14.3205 12.6228 14.3205 10.6964C14.3205 8.77 12.6983 7.14777 10.7719 7.14777C8.79474 7.14777 7.22318 8.77 7.22318 10.6964C7.17248 12.6228 8.79474 14.245 10.7719 14.245Z" fill="#535353"/>
<path d="M17.7184 4.9677C17.7184 5.67743 17.1607 6.28578 16.451 6.28578C15.7413 6.28578 15.1329 5.67743 15.1836 4.9677C15.1836 4.25797 15.7413 3.70032 16.451 3.70032C17.1607 3.70032 17.7184 4.25796 17.7184 4.9677Z" fill="#535353"/>
<path fill-rule="evenodd" clip-rule="evenodd" d="M96.633 12.4812V20.3603H92.032V12.9988C92.032 11.1584 91.3994 9.89316 89.7315 9.89316C88.4663 9.89316 87.7186 10.7558 87.3735 11.561C87.2585 11.8486 87.201 12.2512 87.201 12.6537V20.3603H82.6C82.6 20.3603 82.6575 7.88025 82.6 6.61499H87.201V8.57039C87.201 8.57039 87.201 8.62789 87.1435 8.62789H87.201V8.57039C87.8336 7.6502 88.8689 6.26991 91.3419 6.26991C94.3325 6.26991 96.633 8.28283 96.633 12.4812ZM77.8835 0.00109863C76.3306 0.00109863 75.2954 1.03631 75.2954 2.35909C75.2954 3.68186 76.2731 4.71709 77.826 4.71709H77.8835C79.4938 4.71709 80.4715 3.68187 80.4715 2.35909C80.414 1.03631 79.4363 0.00109863 77.8835 0.00109863ZM75.5261 20.3604H80.0695V6.61501H75.5261V20.3604Z" fill="#535353"/>
<path fill-rule="evenodd" clip-rule="evenodd" d="M234.616 3.82596C233.813 4.1774 233.009 4.42842 232.106 4.52883C233.009 3.97658 233.712 3.1231 234.013 2.11901C233.16 2.62106 232.206 2.97249 231.252 3.1733C230.449 2.31982 229.294 1.76758 228.039 1.76758C225.629 1.76758 223.671 3.72555 223.671 6.13537C223.671 6.48681 223.721 6.83823 223.772 7.13947C220.107 6.93865 216.894 5.23169 214.735 2.57085C214.333 3.22351 214.132 3.97658 214.132 4.77985C214.132 6.28599 214.885 7.64151 216.09 8.44478C215.387 8.44478 214.685 8.24397 214.082 7.89253V7.94273C214.082 10.0513 215.588 11.8587 217.596 12.2603C217.245 12.3607 216.843 12.4109 216.442 12.4109C216.14 12.4109 215.889 12.3607 215.638 12.3105C216.191 14.0677 217.797 15.3228 219.755 15.373C218.249 16.5277 216.392 17.2306 214.333 17.2306C213.982 17.2306 213.63 17.2306 213.279 17.1804C215.237 18.4355 217.496 19.1383 220.006 19.1383C228.089 19.1383 232.457 12.4611 232.457 6.68762C232.457 6.48681 232.457 6.28599 232.457 6.13537C233.311 5.48272 234.064 4.67944 234.616 3.82596Z" fill="white"/>
</svg>
