<svg width="65" height="65" viewBox="0 0 65 65" fill="none" xmlns="http://www.w3.org/2000/svg">
<g id="Wave">
<path id="Vector" d="M57.5514 44.3078C55.1681 44.3078 54.1118 43.3869 52.6222 42.0869C50.9702 40.6786 48.9119 38.8911 45.0389 38.8911C41.1389 38.8911 39.1076 40.6786 37.4556 42.0869C35.966 43.3869 34.8827 44.3078 32.4993 44.3078C30.1431 44.3078 29.0597 43.3869 27.5702 42.0869C25.9181 40.6786 23.8598 38.8911 19.9869 38.8911C16.0869 38.8911 14.0285 40.6786 12.3765 42.0869C10.8869 43.3869 9.8306 44.3078 7.44727 44.3078C6.33685 44.3078 5.41602 45.2286 5.41602 46.339C5.41602 47.4765 6.33685 48.3703 7.44727 48.3703C11.3473 48.3703 13.3785 46.6099 15.0306 45.1744C16.5201 43.8744 17.6035 42.9536 19.9869 42.9536C22.3702 42.9536 23.4265 43.8744 24.916 45.1744C26.5681 46.6099 28.6264 48.3703 32.4993 48.3703C36.3993 48.3703 38.4577 46.6099 40.1098 45.1744C41.5993 43.8744 42.6556 42.9536 45.0389 42.9536C47.3952 42.9536 48.4785 43.8744 49.9681 45.1744C51.6202 46.6099 53.6785 48.3703 57.5514 48.3703C58.6618 48.3703 59.5827 47.4765 59.5827 46.339C59.5827 45.2286 58.6618 44.3078 57.5514 44.3078Z" fill="white"/>
<path id="Vector_2" d="M57.5514 33.1506C55.1681 33.1506 54.1118 32.2026 52.6222 30.9297C50.9702 29.4943 48.9119 27.7339 45.0389 27.7339C41.1389 27.7339 39.1076 29.4943 37.4556 30.9297C35.966 32.2026 34.8827 33.1506 32.4993 33.1506C30.1431 33.1506 29.0597 32.2026 27.5702 30.9297C25.9181 29.4943 23.8598 27.7339 19.9869 27.7339C16.0869 27.7339 14.0285 29.4943 12.3765 30.9297C10.8869 32.2026 9.8306 33.1506 7.44727 33.1506C6.33685 33.1506 5.41602 34.0443 5.41602 35.1818C5.41602 36.2922 6.33685 37.2131 7.44727 37.2131C11.3473 37.2131 13.3785 35.4256 15.0306 33.9901C16.5201 32.7172 17.6035 31.7964 19.9869 31.7964C22.3702 31.7964 23.4265 32.7172 24.916 33.9901C26.5681 35.4256 28.6264 37.2131 32.4993 37.2131C36.3993 37.2131 38.4577 35.4256 40.1098 33.9901C41.5993 32.7172 42.6556 31.7964 45.0389 31.7964C47.3952 31.7964 48.4785 32.7172 49.9681 33.9901C51.6202 35.4256 53.6785 37.2131 57.5514 37.2131C58.6618 37.2131 59.5827 36.2922 59.5827 35.1818C59.5827 34.0443 58.6618 33.1506 57.5514 33.1506Z" fill="white"/>
<path id="Vector_3" d="M7.44727 26.1086C11.3473 26.1086 13.3785 24.3211 15.0306 22.9127C16.5201 21.6127 17.6035 20.6919 19.9869 20.6919C22.3702 20.6919 23.4265 21.6127 24.916 22.9127C26.5681 24.3211 28.6264 26.1086 32.4993 26.1086C36.3993 26.1086 38.4577 24.3211 40.1098 22.9127C41.5993 21.6127 42.6556 20.6919 45.0389 20.6919C47.3952 20.6919 48.4785 21.6127 49.9681 22.9127C51.6202 24.3211 53.6785 26.1086 57.5514 26.1086C58.6618 26.1086 59.5827 25.1877 59.5827 24.0773C59.5827 22.9398 58.6618 22.0461 57.5514 22.0461C55.1681 22.0461 54.1118 21.1252 52.6222 19.8252C50.9702 18.3898 48.9119 16.6294 45.0389 16.6294C41.1389 16.6294 39.1076 18.3898 37.4556 19.8252C35.966 21.1252 34.8827 22.0461 32.4993 22.0461C30.1431 22.0461 29.0597 21.1252 27.5702 19.8252C25.9181 18.3898 23.8598 16.6294 19.9869 16.6294C16.0869 16.6294 14.0285 18.3898 12.3765 19.8252C10.8869 21.1252 9.8306 22.0461 7.44727 22.0461C6.33685 22.0461 5.41602 22.9398 5.41602 24.0773C5.41602 25.1877 6.33685 26.1086 7.44727 26.1086Z" fill="white"/>
</g>
</svg>
