<svg width="18" height="17" viewBox="0 0 18 17" fill="none" xmlns="http://www.w3.org/2000/svg">
<circle cx="9.02521" cy="8.5412" r="8.06281" fill="white"/>
<path fill-rule="evenodd" clip-rule="evenodd" d="M9.02573 1.65686C5.22354 1.65686 2.14111 4.73929 2.14111 8.54148C2.14111 12.3437 5.22354 15.4261 9.02573 15.4261C12.8279 15.4261 15.9103 12.3437 15.9103 8.54148C15.9103 4.73929 12.8279 1.65686 9.02573 1.65686ZM12.0099 7.37735C12.0649 7.31454 12.1067 7.24137 12.1329 7.16216C12.1592 7.08294 12.1693 6.99927 12.1628 6.91607C12.1562 6.83288 12.1331 6.75183 12.0948 6.6777C12.0564 6.60358 12.0036 6.53787 11.9395 6.48444C11.8754 6.43102 11.8013 6.39095 11.7214 6.3666C11.6416 6.34226 11.5577 6.33412 11.4747 6.34267C11.3917 6.35123 11.3112 6.3763 11.238 6.41641C11.1649 6.45652 11.1004 6.51086 11.0486 6.57623L8.3573 9.80512L6.96473 8.41192C6.84669 8.29791 6.68859 8.23483 6.52449 8.23626C6.36038 8.23768 6.20341 8.3035 6.08736 8.41955C5.97132 8.53559 5.9055 8.69257 5.90407 8.85667C5.90265 9.02077 5.96573 9.17887 6.07974 9.29691L7.95736 11.1745C8.01886 11.236 8.09249 11.284 8.17355 11.3154C8.25461 11.3468 8.34134 11.361 8.42819 11.3571C8.51504 11.3531 8.60012 11.3311 8.678 11.2925C8.75588 11.2538 8.82486 11.1994 8.88053 11.1326L12.0099 7.37735Z" fill="#007AFF"/>
</svg>
