<svg width="53" height="53" viewBox="0 0 53 53" fill="none" xmlns="http://www.w3.org/2000/svg">
<path d="M46.9269 36.1279C44.9836 36.1279 44.1223 35.377 42.9077 34.317C41.5607 33.1687 39.8823 31.7112 36.7244 31.7112C33.5444 31.7112 31.8881 33.1687 30.5411 34.317C29.3265 35.377 28.4432 36.1279 26.4998 36.1279C24.5786 36.1279 23.6952 35.377 22.4807 34.317C21.1336 33.1687 19.4553 31.7112 16.2973 31.7112C13.1173 31.7112 11.439 33.1687 10.0919 34.317C8.87735 35.377 8.01609 36.1279 6.07275 36.1279C5.16734 36.1279 4.4165 36.8787 4.4165 37.7841C4.4165 38.7116 5.16734 39.4404 6.07275 39.4404C9.25275 39.4404 10.909 38.0049 12.2561 36.8345C13.4706 35.7745 14.354 35.0237 16.2973 35.0237C18.2407 35.0237 19.1019 35.7745 20.3165 36.8345C21.6636 38.0049 23.3419 39.4404 26.4998 39.4404C29.6798 39.4404 31.3582 38.0049 32.7052 36.8345C33.9198 35.7745 34.7811 35.0237 36.7244 35.0237C38.6457 35.0237 39.529 35.7745 40.7436 36.8345C42.0907 38.0049 43.769 39.4404 46.9269 39.4404C47.8323 39.4404 48.5832 38.7116 48.5832 37.7841C48.5832 36.8787 47.8323 36.1279 46.9269 36.1279Z" fill="#141416"/>
<path d="M46.9269 27.0307C44.9836 27.0307 44.1223 26.2578 42.9077 25.2198C41.5607 24.0494 39.8823 22.614 36.7244 22.614C33.5444 22.614 31.8881 24.0494 30.5411 25.2198C29.3265 26.2578 28.4432 27.0307 26.4998 27.0307C24.5786 27.0307 23.6952 26.2578 22.4807 25.2198C21.1336 24.0494 19.4553 22.614 16.2973 22.614C13.1173 22.614 11.439 24.0494 10.0919 25.2198C8.87735 26.2578 8.01609 27.0307 6.07275 27.0307C5.16734 27.0307 4.4165 27.7594 4.4165 28.6869C4.4165 29.5923 5.16734 30.3432 6.07275 30.3432C9.25275 30.3432 10.909 28.8857 12.2561 27.7153C13.4706 26.6773 14.354 25.9265 16.2973 25.9265C18.2407 25.9265 19.1019 26.6773 20.3165 27.7153C21.6636 28.8857 23.3419 30.3432 26.4998 30.3432C29.6798 30.3432 31.3582 28.8857 32.7052 27.7153C33.9198 26.6773 34.7811 25.9265 36.7244 25.9265C38.6457 25.9265 39.529 26.6773 40.7436 27.7153C42.0907 28.8857 43.769 30.3432 46.9269 30.3432C47.8323 30.3432 48.5832 29.5923 48.5832 28.6869C48.5832 27.7594 47.8323 27.0307 46.9269 27.0307Z" fill="#141416"/>
<path d="M6.07275 21.2885C9.25275 21.2885 10.909 19.831 12.2561 18.6827C13.4706 17.6227 14.354 16.8718 16.2973 16.8718C18.2407 16.8718 19.1019 17.6227 20.3165 18.6827C21.6636 19.831 23.3419 21.2885 26.4998 21.2885C29.6798 21.2885 31.3582 19.831 32.7052 18.6827C33.9198 17.6227 34.7811 16.8718 36.7244 16.8718C38.6457 16.8718 39.529 17.6227 40.7436 18.6827C42.0907 19.831 43.769 21.2885 46.9269 21.2885C47.8323 21.2885 48.5832 20.5377 48.5832 19.6322C48.5832 18.7047 47.8323 17.976 46.9269 17.976C44.9836 17.976 44.1223 17.2252 42.9077 16.1652C41.5606 14.9947 39.8823 13.5593 36.7244 13.5593C33.5444 13.5593 31.8881 14.9947 30.5411 16.1652C29.3265 17.2252 28.4432 17.976 26.4998 17.976C24.5786 17.976 23.6952 17.2252 22.4807 16.1652C21.1336 14.9947 19.4553 13.5593 16.2973 13.5593C13.1173 13.5593 11.439 14.9947 10.0919 16.1652C8.87735 17.2252 8.01609 17.976 6.07275 17.976C5.16734 17.976 4.4165 18.7047 4.4165 19.6322C4.4165 20.5377 5.16734 21.2885 6.07275 21.2885Z" fill="#141416"/>
</svg>
