<svg width="16" height="16" viewBox="0 0 16 16" fill="none" xmlns="http://www.w3.org/2000/svg">
<circle cx="7.99685" cy="8.18289" r="7.81033" fill="white"/>
<path fill-rule="evenodd" clip-rule="evenodd" d="M7.99606 1.51379C4.31293 1.51379 1.32703 4.4997 1.32703 8.18282C1.32703 11.8659 4.31293 14.8519 7.99606 14.8519C11.6792 14.8519 14.6651 11.8659 14.6651 8.18282C14.6651 4.4997 11.6792 1.51379 7.99606 1.51379ZM10.8868 7.05515C10.94 6.99431 10.9805 6.92343 11.006 6.84669C11.0314 6.76996 11.0412 6.68891 11.0349 6.60832C11.0285 6.52772 11.0061 6.44922 10.969 6.37741C10.9318 6.30561 10.8807 6.24196 10.8186 6.1902C10.7565 6.13845 10.6847 6.09964 10.6073 6.07605C10.53 6.05247 10.4488 6.04459 10.3683 6.05287C10.2879 6.06116 10.21 6.08544 10.1391 6.1243C10.0682 6.16315 10.0058 6.21579 9.95554 6.27912L7.34855 9.40689L5.99959 8.05732C5.88525 7.94689 5.7321 7.88578 5.57314 7.88716C5.41417 7.88854 5.26211 7.9523 5.1497 8.06471C5.03729 8.17712 4.97353 8.32918 4.97215 8.48814C4.97077 8.64711 5.03188 8.80025 5.14232 8.9146L6.96114 10.7334C7.02071 10.793 7.09203 10.8394 7.17056 10.8699C7.24909 10.9003 7.33309 10.9141 7.41723 10.9102C7.50136 10.9064 7.58377 10.8851 7.65922 10.8477C7.73466 10.8102 7.80147 10.7575 7.8554 10.6928L10.8868 7.05515Z" fill="#007AFF"/>
</svg>
