<svg width="27" height="28" viewBox="0 0 27 28" fill="none" xmlns="http://www.w3.org/2000/svg">
<path d="M12.7054 11.2676V13.4079C11.9028 13.2073 11.3677 12.7502 11.3677 12.3377C11.3677 11.9141 11.9028 11.4571 12.7054 11.2676Z" fill="black"/>
<path d="M15.7151 16.3509C15.7151 16.7634 15.1801 17.2204 14.3774 17.4211V15.2808C15.1801 15.4703 15.7151 15.9273 15.7151 16.3509Z" fill="black"/>
<path d="M21.2224 6.65263C19.1712 4.60149 16.4401 3.47559 13.5417 3.47559C10.6433 3.47559 7.9122 4.60149 5.86105 6.65263C3.79875 8.70378 2.67285 11.4349 2.67285 14.3444C2.67285 15.7713 2.95154 17.1759 3.49777 18.5025C4.044 19.829 4.84662 21.0107 5.86105 22.0251C6.86433 23.0395 8.05711 23.831 9.38367 24.3772C10.7102 24.9346 12.1037 25.2133 13.5417 25.2133C14.9797 25.2133 16.3732 24.9346 17.6997 24.3772C19.0263 23.831 20.2191 23.0395 21.2224 22.0251C22.2368 21.0107 23.0394 19.829 23.5856 18.5025C24.1319 17.1759 24.4106 15.7713 24.4106 14.3444C24.4106 11.4349 23.2847 8.70378 21.2224 6.65263ZM14.3778 19.1267V19.3608C14.3778 19.8179 13.9988 20.1969 13.5417 20.1969C13.0847 20.1969 12.7056 19.8179 12.7056 19.3608V19.1156C11.7247 18.9595 10.8551 18.5359 10.2978 17.9005C10.0525 17.6107 10.0302 17.1871 10.2532 16.8749C10.4761 16.5516 10.8774 16.4402 11.2342 16.5739L12.7056 17.1313V15.1025C10.9666 14.8349 9.6958 13.709 9.6958 12.3379C9.6958 10.9556 10.9666 9.84083 12.7056 9.56214V9.32804C12.7056 8.85985 13.0847 8.49198 13.5417 8.49198C13.9988 8.49198 14.3778 8.85985 14.3778 9.32804V9.56214C15.3588 9.72936 16.2283 10.153 16.7856 10.7772C17.0309 11.0671 17.0532 11.4907 16.8302 11.814C16.6742 12.0369 16.4178 12.1707 16.1502 12.1707C16.0499 12.1707 15.9496 12.1484 15.8492 12.1149L14.3778 11.5464V13.5753C16.1168 13.8428 17.3876 14.9687 17.3876 16.351C17.3876 17.7333 16.1168 18.848 14.3778 19.1267Z" fill="black"/>
</svg>
